# xmcd CD database file
#
# Track frame offsets:
#	150
#	12695
#	27417
#	39622
#	57152
#	77762
#	88947
#	102582
#	113272
#	127305
#	139502
#	154202
#
# Disc length: 2344 seconds
#
# Revision: 0
# Processed by: cddbd v1.5.2PL0 Copyright (c) Steve Scherf et al.
# Submitted via: CDex 1.70beta2
#
DISCID=a209260c
DTITLE=Písničky osady údolí děsu - Písničky osady údolí děsu
DYEAR=1900
DGENRE=Country
TTITLE0=Pojď děvče mé
TTITLE1=Na vlnách oceánu
TTITLE2=Maličká Betsy
TTITLE3=Neplač pro nás děvče
TTITLE4=Mandolína
TTITLE5=Má Dolly
TTITLE6=Škuner
TTITLE7=Břízy
TTITLE8=Velrybářská
TTITLE9=Až modrý dým
TTITLE10=Pagoda
TTITLE11=Sbohem má osado
EXTD=
EXTT0=
EXTT1=
EXTT2=
EXTT3=
EXTT4=
EXTT5=
EXTT6=
EXTT7=
EXTT8=
EXTT9=
EXTT10=
EXTT11=
PLAYORDER=
